<?xml version="1.0" encoding="utf-8"?>
<!-- Generator: Adobe Illustrator 20.1.0, SVG Export Plug-In . SVG Version: 6.00 Build 0)  -->
<svg version="1.1" id="Layer_1" xmlns="http://www.w3.org/2000/svg" xmlns:xlink="http://www.w3.org/1999/xlink" x="0px" y="0px"
	 viewBox="0 0 256 256" style="enable-background:new 0 0 256 256;" xml:space="preserve">
<path d="M131.2,255.2h3.3v-18.6c18.6-1.8,33.5-8,44.6-18.8c11.1-10.7,16.7-24.9,16.7-42.5c0-10.2-1.8-18.8-5.5-25.7
	c-3.6-6.9-8.4-12.8-14.4-17.6c-5.9-4.8-12.6-8.9-19.8-12.2c-7.3-3.3-14.5-6.3-21.6-9.2V38c7.5,0.2,15.2,1.3,23.3,3.2
	c8.1,1.9,15.4,4.3,22.1,7.1l7.2-16.5c-2.1-1-5-2.1-8.8-3.5c-3.7-1.3-8-2.6-12.7-3.9c-4.7-1.3-9.8-2.4-15.2-3.3
	c-5.5-0.9-10.8-1.4-16-1.7V0.8h-3.3 M123.4,0.8h-2.5V20c-8.6,1-16.3,3.2-23,6.5c-6.7,3.3-12.4,7.4-17.1,12.3
	c-4.7,4.9-8.3,10.4-10.8,16.5c-2.5,6.1-3.8,12.5-3.8,19.1c0,7.6,1.5,14.1,4.7,19.5c3.1,5.4,7.2,10.1,12.3,14.1
	c5.1,4,10.9,7.4,17.4,10.2c6.5,2.8,13.2,5.5,20.3,8.1v90.9c-9.8-0.2-19.8-2-29.9-5.6c-10.1-3.5-18.7-7.5-25.7-12.2l-9.3,18
	c2.2,1.4,5.3,3.2,9.2,5.4c3.9,2.2,8.6,4.4,14.1,6.5c5.5,2.1,11.7,4,18.6,5.6c6.9,1.6,14.6,2.4,23,2.4v18h2.5 M173.3,191.9
	c-2.7,4.8-6.2,8.9-10.4,12.2s-8.9,6-14.1,8c-5.2,2-10.3,3.4-15.3,4.2V131c5.8,2.2,11.3,4.6,16.7,7.2c5.3,2.6,9.9,5.7,14,9.2
	c4,3.5,7.2,7.5,9.6,12c2.4,4.5,3.6,9.8,3.6,15.8C177.3,181.5,176,187.1,173.3,191.9z M95.7,51.2c6-6.2,14.4-10.2,25.2-12v66.9
	c-4.8-1.8-9.3-3.8-13.5-5.9c-4.2-2.1-7.8-4.5-10.8-7.2c-3-2.7-5.4-5.7-7.2-9s-2.7-7.1-2.7-11.6C86.7,64.5,89.7,57.4,95.7,51.2z"/>
</svg>
